<?xml version="1.0" encoding="UTF-8" standalone="no"?>
<!DOCTYPE svg PUBLIC "-//W3C//DTD SVG 1.1//EN" "http://www.w3.org/Graphics/SVG/1.1/DTD/svg11.dtd">
<svg width="100%" height="100%" viewBox="0 0 64 64" version="1.1" xmlns="http://www.w3.org/2000/svg" xmlns:xlink="http://www.w3.org/1999/xlink" xml:space="preserve" xmlns:serif="http://www.serif.com/" style="fill-rule:evenodd;clip-rule:evenodd;stroke-linecap:round;stroke-linejoin:round;stroke-miterlimit:1.5;">
    <g id="Layer1">
        <path d="M30.505,6.803C30.865,6.211 31.508,5.85 32.201,5.85C32.894,5.85 33.536,6.211 33.897,6.803C39.395,15.839 56.699,44.279 62.431,53.699C62.81,54.322 62.824,55.1 62.466,55.736C62.109,56.371 61.437,56.764 60.709,56.764C49.468,56.764 15.009,56.764 3.724,56.764C2.989,56.764 2.311,56.367 1.951,55.727C1.591,55.086 1.604,54.3 1.986,53.672C7.735,44.224 25.012,15.83 30.505,6.803Z" style="fill:none;stroke:black;stroke-width:0.95px;"/>
        <path id="rect3628" d="M35.643,23.933C34.315,23.933 33.237,25.022 33.237,26.364C33.237,26.648 33.286,26.92 33.375,27.173C33.124,27.278 32.847,27.429 32.553,27.64L32.353,27.465C32.276,27.403 32.2,27.343 32.124,27.286C30.16,25.784 28.55,25.576 26.72,25.876C23.973,26.486 23.934,29.294 23.205,31.543C22.071,33.024 22.578,33.638 23.376,33.769C23.693,33.829 23.919,33.798 24.08,33.699L24.622,33.999C24.278,34.721 23.979,35.454 23.763,36.2C23.025,43.01 19.234,43.476 16.883,46.92C17.513,48.134 18.143,49.378 19.218,50.502L20.357,50.49C19.914,49.765 19.428,49.063 19.243,48.209C21.921,44.993 24.033,46.036 27.274,38.56C30.752,41.41 29.75,46.501 30.985,50.473L35.593,50.494C35.228,49.911 34.601,49.51 33.475,49.464C33.034,45.835 33.087,42.099 32.086,38.59L35.084,40.424C35.182,41.354 36.189,41.775 36.756,41.45L39.12,42.897C39.345,43.035 39.461,43.133 39.45,43.152C38.275,45.076 37.61,47.583 37.294,50.486L51.638,50.486L45.396,39.144C43.051,39.549 41.314,40.643 40.05,42.28C40.039,42.295 39.835,42.608 39.65,42.492L37.119,40.908C37.136,40.816 37.143,40.713 37.136,40.599C36.806,39.319 36.209,37.566 35.368,36.05C35.625,34.454 36.029,32.909 35.614,30.967C35.486,30.436 35.05,29.854 34.384,29.233L34.167,29.045C34.324,28.865 34.45,28.693 34.55,28.528C34.878,28.697 35.249,28.795 35.643,28.795C36.971,28.795 38.049,27.706 38.049,26.364C38.049,25.022 36.971,23.933 35.643,23.933L35.643,23.933ZM27.145,27.936C27.639,27.94 28.037,28.117 27.937,28.499C26.944,30.042 25.783,31.716 24.881,33.473L24.401,33.144C24.457,32.797 24.394,32.359 24.306,31.952C24.941,30.667 24.851,29.1 26.236,28.107C26.515,27.993 26.849,27.934 27.145,27.936L27.145,27.936ZM33.179,33.369C33.481,33.405 33.327,35.466 33.629,36.392C34.206,37.403 34.806,38.413 35.297,39.424C35.252,39.517 35.215,39.607 35.184,39.695L31.457,37.36C31.255,36.846 30.718,36.113 31.008,35.5C31.338,34.803 31.987,34.068 33.112,33.39C33.136,33.373 33.159,33.367 33.179,33.369L33.179,33.369Z" style="fill:none;fill-rule:nonzero;stroke:black;stroke-width:1px;stroke-linecap:butt;stroke-miterlimit:2;"/>
    </g>
</svg>
