<?xml version="1.0" encoding="UTF-8" standalone="no"?>
<!DOCTYPE svg PUBLIC "-//W3C//DTD SVG 1.1//EN" "http://www.w3.org/Graphics/SVG/1.1/DTD/svg11.dtd">
<svg width="100%" height="100%" viewBox="0 0 800 600" version="1.1" xmlns="http://www.w3.org/2000/svg" xmlns:xlink="http://www.w3.org/1999/xlink" xml:space="preserve" xmlns:serif="http://www.serif.com/" style="fill-rule:evenodd;clip-rule:evenodd;stroke-linejoin:round;stroke-miterlimit:2;">
    <g transform="matrix(1.35375,0,0,1.35375,-145.1,-124.587)">
        <g transform="matrix(206.827,0,0,206.827,120.505,358.44)">
            <path d="M0.028,-0.299C0.053,-0.299 0.073,-0.306 0.089,-0.319C0.105,-0.332 0.115,-0.35 0.121,-0.372C0.126,-0.395 0.129,-0.433 0.129,-0.487C0.129,-0.542 0.13,-0.577 0.132,-0.595C0.135,-0.622 0.14,-0.644 0.148,-0.661C0.156,-0.677 0.166,-0.691 0.178,-0.7C0.189,-0.71 0.204,-0.718 0.223,-0.723C0.235,-0.726 0.255,-0.728 0.283,-0.728L0.311,-0.728L0.311,-0.651L0.295,-0.651C0.262,-0.651 0.239,-0.645 0.228,-0.633C0.217,-0.621 0.211,-0.594 0.211,-0.551C0.211,-0.466 0.21,-0.412 0.206,-0.39C0.2,-0.355 0.19,-0.328 0.176,-0.309C0.162,-0.29 0.14,-0.273 0.109,-0.259C0.145,-0.244 0.171,-0.221 0.187,-0.19C0.203,-0.159 0.211,-0.109 0.211,-0.039C0.211,0.024 0.212,0.062 0.213,0.074C0.216,0.096 0.223,0.112 0.233,0.121C0.244,0.129 0.264,0.134 0.295,0.134L0.311,0.134L0.311,0.21L0.283,0.21C0.251,0.21 0.228,0.208 0.214,0.203C0.193,0.195 0.176,0.183 0.162,0.166C0.148,0.149 0.14,0.128 0.135,0.103C0.131,0.077 0.129,0.035 0.129,-0.024C0.129,-0.083 0.126,-0.123 0.121,-0.146C0.115,-0.168 0.105,-0.186 0.089,-0.199C0.073,-0.212 0.053,-0.219 0.028,-0.219L0.028,-0.299Z" style="fill:rgb(242,242,242);fill-rule:nonzero;"/>
        </g>
        <g transform="matrix(206.827,0,0,206.827,189.582,358.44)">
            <path d="M0.055,-0.313L0.055,-0.395L0.529,-0.595L0.529,-0.508L0.153,-0.354L0.529,-0.198L0.529,-0.11L0.055,-0.313Z" style="fill:rgb(242,242,242);fill-rule:nonzero;"/>
        </g>
        <g transform="matrix(206.827,0,0,206.827,367.829,358.44)">
            <path d="M0,0.012L0.208,-0.728L0.278,-0.728L0.071,0.012L0,0.012Z" style="fill:rgb(242,242,242);fill-rule:nonzero;"/>
        </g>
        <g transform="matrix(206.827,0,0,206.827,482.756,358.44)">
            <path d="M0.529,-0.313L0.055,-0.11L0.055,-0.198L0.43,-0.354L0.055,-0.508L0.055,-0.595L0.529,-0.395L0.529,-0.313Z" style="fill:rgb(242,242,242);fill-rule:nonzero;"/>
        </g>
        <g transform="matrix(206.827,0,0,206.827,603.54,358.44)">
            <path d="M0.306,-0.299L0.306,-0.219C0.281,-0.219 0.26,-0.212 0.244,-0.199C0.229,-0.186 0.218,-0.168 0.213,-0.146C0.208,-0.123 0.205,-0.085 0.205,-0.031C0.204,0.024 0.203,0.059 0.202,0.077C0.199,0.104 0.193,0.126 0.185,0.143C0.177,0.159 0.167,0.172 0.156,0.182C0.144,0.192 0.129,0.2 0.111,0.205C0.098,0.209 0.078,0.21 0.05,0.21L0.023,0.21L0.023,0.134L0.038,0.134C0.072,0.134 0.094,0.128 0.105,0.115C0.117,0.103 0.122,0.076 0.122,0.033C0.122,-0.048 0.124,-0.1 0.126,-0.122C0.132,-0.158 0.142,-0.187 0.158,-0.208C0.173,-0.23 0.195,-0.247 0.224,-0.259C0.187,-0.277 0.16,-0.3 0.145,-0.33C0.13,-0.359 0.122,-0.409 0.122,-0.479C0.122,-0.542 0.121,-0.58 0.12,-0.593C0.117,-0.615 0.111,-0.63 0.1,-0.638C0.09,-0.647 0.069,-0.651 0.038,-0.651L0.023,-0.651L0.023,-0.728L0.05,-0.728C0.082,-0.728 0.105,-0.725 0.12,-0.72C0.14,-0.713 0.158,-0.701 0.171,-0.684C0.185,-0.667 0.194,-0.646 0.198,-0.62C0.202,-0.594 0.204,-0.552 0.205,-0.494C0.205,-0.435 0.208,-0.395 0.213,-0.372C0.218,-0.35 0.229,-0.332 0.244,-0.319C0.26,-0.306 0.281,-0.299 0.306,-0.299Z" style="fill:rgb(242,242,242);fill-rule:nonzero;"/>
        </g>
    </g>
</svg>
